<svg xmlns="http://www.w3.org/2000/svg" xmlns:xlink="http://www.w3.org/1999/xlink" aria-hidden="true" role="img" class="iconify iconify--logos" width="31.88" height="32" preserveAspectRatio="xMidYMid meet" viewBox="0 0 256 257"><defs><linearGradient id="IconifyId181329994246993460" x1="5.636%" x2="94.364%" y1="5.636%" y2="94.364%"><stop offset="0%" stop-color="#41D1FF"></stop><stop offset="100%" stop-color="#BD34FE"></stop></linearGradient><linearGradient id="IconifyId181329994246993461" x1="5.636%" x2="94.364%" y1="5.636%" y2="94.364%"><stop offset="0%" stop-color="#FFEA83"></stop><stop offset="8.33%" stop-color="#FFDD35"></stop><stop offset="100%" stop-color="#FFA800"></stop></linearGradient></defs><path fill="url(#IconifyId181329994246993460)" d="M255.5 128.5c0 71-57.5 128.5-128 128.5S.5 199.5.5 128.5S58 0 128 0s127.5 57.5 127.5 128.5Z"></path><path fill="url(#IconifyId181329994246993461)" d="M176.82 201.35c-2.07 10.97-12.28 19.34-24.22 19.34H88.31c-14.14 0-25.6-11.46-25.6-25.6V138.6c0-10.43 6.2-19.4 15.2-23.44l22.62-10.05c11.23-4.99 24.3-1.63 32.22 7.7l16.14 18.99c8.39 9.87 23.01 11.45 33.3 3.52l12.1-9.37c9.08-7.03 21.08-5.32 28.1 3.75l2.6 3.4c7.02 9.08 5.32 21.08-3.75 28.1l-24.8 19.18Z"></path><path fill="#FFC900" d="m119.5 82.32l2.6-3.4c7.02-9.08 19.02-10.79 28.1-3.75l12.1 9.37c10.29 7.93 24.91 6.35 33.3-3.52l16.14-18.99c7.92-9.33 20.99-12.69 32.22-7.7l22.62 10.05c9 4.04 15.2 13.01 15.2 23.44v56.5c0 14.14-11.46 25.6-25.6 25.6H173.8c-11.94 0-22.15-8.37-24.22-19.34l-24.8-19.18c-9.07-7.02-10.79-19.02-3.75-28.1l2.23-2.88Z"></path></svg>